<svg xmlns="http://www.w3.org/2000/svg" xmlns:xlink="http://www.w3.org/1999/xlink" width="40" zoomAndPan="magnify" viewBox="0 0 30 30.000001" height="40" preserveAspectRatio="xMidYMid meet" version="1.0"><defs><clipPath id="1edce3d6b2"><path d="M 4.574219 7 L 16 7 L 16 24 L 4.574219 24 Z M 4.574219 7 " clip-rule="nonzero"/></clipPath><clipPath id="540e538957"><path d="M 4.574219 6 L 25.625 6 L 25.625 29.03125 L 4.574219 29.03125 Z M 4.574219 6 " clip-rule="nonzero"/></clipPath><clipPath id="9141586c58"><path d="M 4.574219 0 L 13 0 L 13 24 L 4.574219 24 Z M 4.574219 0 " clip-rule="nonzero"/></clipPath></defs><path fill="#ffa000" d="M 18.441406 10.601562 L 15.523438 13.289062 L 12.816406 7.882812 L 14.21875 4.773438 C 14.582031 4.144531 15.152344 4.148438 15.507812 4.773438 Z M 18.441406 10.601562 " fill-opacity="1" fill-rule="nonzero"/><g clip-path="url(#1edce3d6b2)"><path fill="#f57f17" d="M 12.816406 7.882812 L 15.523438 13.289062 L 4.625 23.328125 Z M 12.816406 7.882812 " fill-opacity="1" fill-rule="nonzero"/></g><g clip-path="url(#540e538957)"><path fill="#ffca28" d="M 21.628906 6.496094 C 22.152344 6 22.6875 6.167969 22.828125 6.871094 L 25.664062 23.195312 L 16.261719 28.785156 C 15.933594 28.964844 15.058594 29.042969 15.058594 29.042969 C 15.058594 29.042969 14.261719 28.949219 13.960938 28.773438 L 4.625 23.328125 Z M 21.628906 6.496094 " fill-opacity="1" fill-rule="nonzero"/></g><g clip-path="url(#9141586c58)"><path fill="#ffa000" d="M 12.816406 7.882812 L 4.625 23.328125 L 8.273438 0.753906 C 8.410156 0.0507812 8.8125 -0.015625 9.175781 0.605469 Z M 12.816406 7.882812 " fill-opacity="1" fill-rule="nonzero"/></g></svg>